# AST/ASF file generated using VICON BodyLanguage
# -----------------------------------------------
:version 1.10
:name VICON
:units
  mass 1.0
  length 0.45
  angle deg
:documentation
   .ast/.asf automatically generated from VICON data using
   VICON BodyBuilder and BodyLanguage model FoxedUp or BRILLIANT.MOD
:root
   order TX TY TZ RX RY RZ
   axis XYZ
   position 0 0 0  
   orientation 0 0 0 
:bonedata
  begin
     id 1 
     name lhipjoint
     direction 0.716248 -0.617586 0.324924 
     length 2.63557 
     axis 0 0 0  XYZ
  end
  begin
     id 2 
     name lfemur
     direction 0.34202 -0.939693 0  
     length 7.01235  
     axis 0 0 20  XYZ
    dof rx ry rz
    limits (-160.0 20.0)
           (-70.0 70.0)
           (-60.0 70.0)
  end
  begin
     id 3 
     name ltibia
     direction 0.34202 -0.939693 0   
     length 8.14348   
     axis 0 0 20   XYZ
    dof rx
    limits (-10.0 170.0)
  end
  begin
     id 4 
     name lfoot
     direction 0.0982064 -0.26982 0.95789   
     length 1.99077   
     axis -90 7.62852e-016 20   XYZ
    dof rx rz
    limits (-45.0 90.0)
           (-70.0 20.0)
  end
  begin
     id 5 
     name ltoes
     direction 1.53511e-011 -4.21891e-011 1   
     length 0.99735   
     axis -90 7.62852e-016 20   XYZ
    dof rx
    limits (-90.0 20.0)
  end
  begin
     id 6 
     name rhipjoint
     direction -0.687828 -0.642391 0.337975   
     length 2.5338  
     axis 0 0 0  XYZ 
  end
  begin
     id 7 
     name rfemur
     direction -0.34202 -0.939693 0   
     length 6.90199   
     axis 0 0 -20   XYZ
    dof rx ry rz
    limits (-160.0 20.0)
           (-70.0 70.0)
           (-70.0 60.0)
  end
  begin
     id 8 
     name rtibia
     direction -0.34202 -0.939693 0   
     length 8.07725   
     axis 0 0 -20   XYZ
    dof rx
    limits (-10.0 170.0)
 end
 begin
     id 9 
     name rfoot
     direction -0.0912384 -0.250675 0.963762   
     length 2.11621  
     axis -90 -7.62852e-016 -20   XYZ
    dof rx rz
    limits (-45.0 90.0)
           (-20.0 70.0)
  end
  begin
     id 10 
     name rtoes
     direction -1.5359e-011 -4.21894e-011 1   
     length 1.06031   
     axis -90 -7.62852e-016 -20   XYZ
    dof rx
    limits (-90.0 20.0)
  end
  begin
     id 11 
     name lowerback
     direction -0.0403572 0.987953 -0.149396   
     length 2.05637   
     axis 0 0 0   XYZ
    dof rx ry rz
    limits (-20.0 45.0)
           (-30.0 30.0)
           (-30.0 30.0)
  end
  begin
     id 12 
     name upperback
     direction -0.00512151 0.997598 0.0690792   
     length 2.01086   
     axis 0 0 0   XYZ
    dof rx ry rz
    limits (-20.0 45.0)
           (-30.0 30.0)
           (-30.0 30.0)
  end
  begin
     id 13 
     name thorax
     direction 0.0136133 0.989392 0.14463   
     length 2.09035   
     axis 0 0 0   XYZ
    dof rx ry rz
    limits (-20.0 45.0)
           (-30.0 30.0)
           (-30.0 30.0)
  end
  begin
     id 14 
     name lowerneck
     direction 0.0250714 0.992811 0.11704   
     length 1.70806   
     axis 0 0 0   XYZ
    dof rx ry rz
    limits (-20.0 45.0)
           (-30.0 30.0)
           (-30.0 30.0)
  end
  begin
     id 15 
     name upperneck
     direction -0.0519205 0.998394 -0.0226787   
     length 1.6689   
     axis 0 0 0   XYZ
    dof rx ry rz
    limits (-20.0 45.0)
           (-30.0 30.0)
           (-30.0 30.0)
  end
  begin
     id 16
     name head
     direction -0.0201693 0.999547 -0.0223192  
     length 1.83412  
     axis 0 0 0   XYZ
    dof rx ry rz
    limits (-20.0 45.0)
           (-30.0 30.0)
           (-30.0 30.0)
  end
  begin
     id 17 
     name lclavicle
     direction 0.89585 0.444077 -0.0157448  
     length 3.39587  
     axis 0 0 0   XYZ
    dof ry rz
    limits (-20.0 10.0)
           (0.0 20.0)
  end
  begin
     id 18 
     name lhumerus
     direction 1 -4.48956e-011 1.99132e-028   
     length 5.79199   
     axis 180 -30 -90   XYZ
    dof rx ry rz
    limits (-60.0 90.0)
           (-90.0 90.0)
           (-90.0 90.0)
  end
  begin
     id 19
     name lradius
     direction 1 -4.48974e-011 8.72912e-028   
     length 3.49908   
     axis 180 -30 -90   XYZ
    dof rx
    limits (-10.0 170.0)
  end
  begin
     id 20
     name lwrist
     direction 1 -4.48994e-011 4.76442e-027   
     length 1.74954   
     axis -3.27502e-015 90 90   XYZ
    dof ry
    limits (-180.0 0.0)
 end
  begin
     id 21 
     name lhand
     direction 1 -4.48945e-011 9.531e-027   
     length 0.593861   
     axis -6.08098e-015 90 90   XYZ
    dof rx rz
    limits (-90.0 90.0)
           (-45.0 45.0)
  end
  begin
     id 22 
     name lfingers
     direction 1 -4.48945e-011 1.9062e-026   
     length 0.478786   
     axis -1.21619e-014 90 90   XYZ
    dof rx
    limits (0.0 90.0)
  end
  begin
     id 23
     name lthumb
     direction 0.707107 -6.34904e-011 0.707107   
     length 0.687444   
     axis -90 45 -9.86923e-015   XYZ
    dof rx rz
    limits (-45.0 45.0)
           (-45.0 45.0)
  end
  begin
     id 24 
     name rclavicle
     direction -0.940466 0.338394 0.0318182   
     length 3.51226  
     axis 0 0 0   XYZ 
    dof ry rz
    limits (-10.0 20.0)
           (-20.0 0.0)
  end
  begin
     id 25 
     name rhumerus
     direction -1 -4.48976e-011 2.0905e-027  
     length 5.73799   
     axis 180 30 90   XYZ
    dof rx ry rz
    limits (-90.0 60.0)
           (-90.0 90.0)
           (-90.0 90.0)
  end
  begin
     id 26 
     name rradius
     direction -1 -4.48968e-011 -9.39692e-029   
     length 3.57916   
     axis 180 30 90   XYZ
    dof rx
    limits (-10.0 170.0)
  end
  begin
     id 27 
     name rwrist
     direction -1 -4.48959e-011 4.7652e-027   
     length 1.78958   
     axis -3.27502e-015 -90 -90   XYZ
    dof ry
    limits (-180.0 0.0)
  end
  begin
     id 28
     name rhand
     direction -1 -4.49042e-011 9.5267e-027   
     length 0.615577   
     axis -6.08098e-015 -90 -90   XYZ
    dof rx rz
    limits (-90.0 90.0)
           (-45.0 45.0)
  end
  begin
     id 29
     name rfingers
     direction -1 -4.48935e-011 1.90629e-026   
     length 0.496294   
     axis -1.21619e-014 -90 -90   XYZ
    dof rx
    limits (0.0 90.0)
  end
  begin
     id 30
     name rthumb
     direction -0.707107 -6.34977e-011 0.707107   
     length 0.712582   
     axis -90 -45 9.86923e-015   XYZ
    dof rx rz
    limits (-45.0 45.0)
           (-45.0 45.0)
  end
:hierarchy
  begin
    root lhipjoint rhipjoint lowerback
    lhipjoint lfemur
    lfemur ltibia
    ltibia lfoot
    lfoot ltoes
    rhipjoint rfemur
    rfemur rtibia
    rtibia rfoot
    rfoot rtoes
    lowerback upperback
    upperback thorax
    thorax lowerneck lclavicle rclavicle
    lowerneck upperneck
    upperneck head
    lclavicle lhumerus
    lhumerus lradius
    lradius lwrist
    lwrist lhand lthumb
    lhand lfingers
    rclavicle rhumerus
    rhumerus rradius
    rradius rwrist
    rwrist rhand rthumb
    rhand rfingers
  end

#!OML:ASF H:\Terrain\Patient Classification 1\PaulMetrics\March17Take5\PaulMetrics.ASF
:FULLY-SPECIFIED
:DEGREES
3653
root 19.9763 16.8588 22.7365 -514.526 -19.9215 177.118
lowerback 6.64939 3.12356 -2.644
upperback -3.28793 3.93396 0.45228
thorax -7.39605 2.05893 1.44137
lowerneck -7.34274 2.13419 4.1155
upperneck -5.41026 2.14614 -4.80211
head -0.343117 0.860291 -2.17101
rclavicle 3.81667e-014 -3.97569e-014
rhumerus -23.801 30.1779 -76.8353
rradius 75.5772
rwrist -16.7083
rhand -25.909 -34.2172
rfingers 7.12502
rthumb 0.633614 295.804
lclavicle 3.81667e-014 -3.97569e-014
lhumerus -66.5366 -22.4758 95.6215
lradius 54.5728
lwrist 19.6999
lhand -12.1293 -20.5205
lfingers 7.12502
lthumb 13.9324 8.99274
rfemur -15.0856 1.08003 24.8818
rtibia 40.2993
rfoot -24.4955 -4.66824
rtoes -24.9747
lfemur -68.2392 3.44327 -25.8908
ltibia 109.376
lfoot -1.91666 3.59272
ltoes -20.7346
3654
root 19.8799 16.9427 22.4234 -514.687 -19.8062 177.243
lowerback 6.41414 3.18706 -2.56716
upperback -3.30301 4.02168 0.302848
thorax -7.26341 2.0936 1.24317
lowerneck -7.39995 2.10332 4.01686
upperneck -5.09093 2.14499 -4.43308
head -0.239628 0.869792 -2.02979
rclavicle 3.93594e-014 -9.54166e-015
rhumerus -23.2254 30.7295 -76.5867
rradius 78.5479
rwrist -14.8153
rhand -19.0243 -38.0272
rfingers 7.12502
rthumb 7.28166 292.118
lclavicle 3.93594e-014 -9.54166e-015
lhumerus -67.368 -21.8964 95.2447
lradius 53.5639
lwrist 19.9984
lhand -11.4437 -21.5019
lfingers 7.12502
lthumb 14.593 7.96476
rfemur -12.009 2.4963 25.0224
rtibia 36.7169
rfoot -22.2286 -5.51799
rtoes -25.7376
lfemur -70.2151 3.28456 -26.0717
ltibia 109.17
lfoot -1.90421 3.19956
ltoes -20.9942
3655
root 19.7805 17.0244 22.1091 -514.76 -19.9211 177.36
lowerback 6.17328 3.1743 -2.36363
upperback -3.39232 4.01543 0.1429
thorax -7.19182 2.07601 0.974704
lowerneck -7.52555 2.05723 4.04185
upperneck -4.65253 2.11412 -4.17886
head -0.085632 0.863268 -1.94921
rclavicle -8.34896e-015 1.98785e-014
rhumerus -22.5786 31.7235 -76.4347
rradius 80.7673
rwrist -14.1677
rhand -16.8365 -37.1976
rfingers 7.12502
rthumb 9.39306 293.032
lclavicle -8.34896e-015 1.98785e-014
lhumerus -68.2679 -21.3832 94.8953
lradius 52.6133
lwrist 20.2385
lhand -12.5398 -21.3814
lfingers 7.12502
lthumb 13.5368 8.15861
rfemur -9.04838 3.84698 25.2994
rtibia 33.0684
rfoot -19.1586 -6.4924
rtoes -25.6998
lfemur -72.0211 2.7261 -26.1908
ltibia 108.534
lfoot -1.78863 2.97493
ltoes -20.5746
3656
root 19.6795 17.1023 21.7971 -514.923 -20.0164 177.456
lowerback 6.14516 3.22342 -2.15577
upperback -3.5263 4.08334 -0.0597642
thorax -7.29015 2.09366 0.63595
lowerneck -7.54025 1.9054 4.18368
upperneck -4.30227 1.9293 -4.07778
head 0.0193314 0.77835 -1.94535
rclavicle 6.59965e-014 -7.15625e-015
rhumerus -22.6427 32.3373 -76.653
rradius 83.2086
rwrist -14.4323
rhand -18.9194 -35.4513
rfingers 7.12502
rthumb 7.38296 294.698
lclavicle 6.59965e-014 -7.15625e-015
lhumerus -69.1002 -21.0823 94.5525
lradius 51.597
lwrist 20.1778
lhand -14.4442 -20.6331
lfingers 7.12502
lthumb 11.7008 9.02017
rfemur -5.97387 5.02851 25.593
rtibia 29.2957
rfoot -15.6422 -7.6324
rtoes -26.4621
lfemur -73.4846 1.96174 -26.35
ltibia 107.539
lfoot -1.77651 2.70228
ltoes -21.4339
3657
root 19.5655 17.1969 21.4644 -515.371 -19.9334 177.647
lowerback 6.19336 3.37196 -1.87827
upperback -3.55439 4.29139 -0.289914
thorax -7.31465 2.17591 0.211201
lowerneck -7.39551 1.76018 4.4265
upperneck -4.12069 1.74374 -4.00307
head 0.0459092 0.691704 -1.96974
rclavicle -6.7388e-014 2.38542e-015
rhumerus -23.3322 32.4037 -77.1255
rradius 85.9706
rwrist -15.2468
rhand -20.8134 -33.5992
rfingers 7.12502
rthumb 5.5545 296.494
lclavicle -6.7388e-014 2.38542e-015
lhumerus -69.6935 -20.7596 93.9143
lradius 50.7001
lwrist 20.225
lhand -14.8958 -20.4817
lfingers 7.12502
lthumb 11.2653 9.19583
rfemur -2.64512 5.96753 25.874
rtibia 25.623
rfoot -11.8798 -8.53149
rtoes -28.1661
lfemur -74.2434 1.68972 -26.5272
ltibia 106.114
lfoot -1.50047 2.29336
ltoes -22.1005
3658
root 19.4258 17.3023 21.1005 -516.097 -19.414 178.052
lowerback 5.9273 3.56686 -1.37699
upperback -3.37114 4.5927 -0.530563
thorax -6.91062 2.29609 -0.328555
lowerneck -7.28641 1.75419 4.61308
upperneck -3.95927 1.74364 -3.90902
head 0.0791572 0.696937 -1.97276
rclavicle -2.5842e-014 -7.95139e-016
rhumerus -23.6739 32.8459 -77.5892
rradius 88.3124
rwrist -16.4396
rhand -22.1295 -31.2585
rfingers 7.12502
rthumb 4.28377 298.805
lclavicle -2.5842e-014 -7.95139e-016
lhumerus -70.0816 -20.0694 92.9251
lradius 49.9882
lwrist 20.0445
lhand -14.8648 -20.0578
lfingers 7.12502
lthumb 11.2952 9.61809
rfemur 0.881547 6.74674 26.0345
rtibia 21.9809
rfoot -7.48873 -9.03197
rtoes -29.6352
lfemur -74.2191 2.17363 -26.763
ltibia 104.267
lfoot -1.30305 2.06834
ltoes -21.27
3659
root 19.3331 17.4016 20.7733 -515.709 -19.5766 178.194
lowerback 5.27793 3.49203 -1.13365
upperback -3.61306 4.49266 -0.818801
thorax -6.74906 2.22586 -0.716001
lowerneck -6.90306 1.7813 4.94097
upperneck -4.0963 1.77742 -3.91853
head -0.0231801 0.715343 -2.03623
rclavicle 6.36111e-015 3.57812e-014
rhumerus -23.9735 33.431 -78.2802
rradius 90.2425
rwrist -16.5011
rhand -22.3274 -29.8294
rfingers 7.12502
rthumb 4.09265 300.23
lclavicle 6.36111e-015 3.57812e-014
lhumerus -70.4488 -19.465 91.818
lradius 49.2776
lwrist 19.6761
lhand -14.4401 -19.8026
lfingers 7.12502
lthumb 11.7047 9.85042
rfemur 3.0552 6.99438 26.2855
rtibia 18.2607
rfoot -3.00585 -10.2573
rtoes -30.6312
lfemur -75.6365 2.08293 -27.0098
ltibia 102.296
lfoot -1.19491 1.63647
ltoes -24.6214
